{"title":"JLA Adventures - Trapped in Time (2014) HDRip x264 AAC-BDM","uid":9519621,"size":935611328,"categoryP":"video","categoryS":"movies","magnet":"?xt=urn:btih:355e11e06287edc28ed78379bf8e62960969b6e6&amp;dn=JLA+Adventures+-+Trapped+in+Time+%282014%29+HDRip+x264+AAC-BDM&amp;tr=udp%3A%2F%2Ftracker.openbittorrent.com%3A80&amp;tr=udp%3A%2F%2Fopen.demonii.com%3A1337&amp;tr=udp%3A%2F%2Ftracker.coppersurfer.tk%3A6969&amp;tr=udp%3A%2F%2Fexodus.desync.com%3A6969","seeders":4,"leechers":0,"uploader":"BigDogMoya","files":-1,"time":1390603129,"description":"IMDB Link:\n  &lt;a href=&quot;\nhttp://www.imdb.com/title/tt3468260/&quot; rel=&quot;nofollow&quot; target=&quot;_NEW&quot;&gt;\nhttp://www.imdb.com/title/tt3468260/&lt;/a&gt;\n\n\nScreens:\n &lt;a href=&quot;\nhttp://i.imgur.com/rwSXSgF.png&quot; rel=&quot;nofollow&quot; target=&quot;_NEW&quot;&gt;\nhttp://i.imgur.com/rwSXSgF.png&lt;/a&gt;\n &lt;a href=&quot;\nhttp://i.imgur.com/ITvrlQg.png&quot; rel=&quot;nofollow&quot; target=&quot;_NEW&quot;&gt;\nhttp://i.imgur.com/ITvrlQg.png&lt;/a&gt;\n &lt;a href=&quot;\nhttp://i.imgur.com/0IeQt6Q.jpg&quot; rel=&quot;nofollow&quot; target=&quot;_NEW&quot;&gt;\nhttp://i.imgur.com/0IeQt6Q.jpg&lt;/a&gt;\n &lt;a href=&quot;\nhttp://i.imgur.com/3E5Qfb0.png&quot; rel=&quot;nofollow&quot; target=&quot;_NEW&quot;&gt;\nhttp://i.imgur.com/3E5Qfb0.png&lt;/a&gt;\n &lt;a href=&quot;\nhttp://i.imgur.com/p8d6k7E.png&quot; rel=&quot;nofollow&quot; target=&quot;_NEW&quot;&gt;\nhttp://i.imgur.com/p8d6k7E.png&lt;/a&gt;\n\n\nVideo\nID                                       : 1\nFormat                                   : AVC\nFormat/Info                              : Advanced Video Codec\nFormat profile                           : &lt;a class=&quot;__cf_email__&quot; href=&quot;/cdn-cgi/l/email-protection&quot; data-cfemail=&quot;5518343c3b1519617b65&quot;&gt;[email&amp;#160;protected]&lt;/a&gt;&lt;script cf-hash='f9e31' type=&quot;text/javascript&quot;&gt;\n/* &lt;![CDATA[ */!function(){try{var t=&quot;currentScript&quot;in document?document.currentScript:function(){for(var t=document.getElementsByTagName(&quot;script&quot;),e=t.length;e--;)if(t[e].getAttribute(&quot;cf-hash&quot;))return t[e]}();if(t&amp;&amp;t.previousSibling){var e,r,n,i,c=t.previousSibling,a=c.getAttribute(&quot;data-cfemail&quot;);if(a){for(e=&quot;&quot;,r=parseInt(a.substr(0,2),16),n=2;a.length-n;n+=2)i=parseInt(a.substr(n,2),16)^r,e+=String.fromCharCode(i);e=document.createTextNode(e),c.parentNode.replaceChild(e,c)}}}catch(u){}}();/* ]]&gt; */&lt;/script&gt;\nFormat settings, CABAC                   : Yes\nFormat settings, ReFrames                : 4 frames\nCodec ID                                 : avc1\nCodec ID/Info                            : Advanced Video Coding\nDuration                                 : 52mn 37s\nBit rate                                 : 2 212 Kbps\nWidth                                    : 1 280 pixels\nHeight                                   : 714 pixels\nDisplay aspect ratio                     : 16:9\nFrame rate mode                          : Variable\nFrame rate                               : 24.000 fps\nMinimum frame rate                       : 23.810 fps\nMaximum frame rate                       : 1 000.000 fps\nColor space                              : YUV\nChroma subsampling                       : 4:2:0\nBit depth                                : 8 bits\nScan type                                : Progressive\nBits/(Pixel*Frame)                       : 0.101\nStream size                              : 832 MiB (94%)\nWriting library                          : x264 core 130 r2273 b3065e6\n\n\nAudio\nID                                       : 2\nFormat                                   : AAC\nFormat/Info                              : Advanced Audio Codec\nFormat profile                           : LC\nCodec ID                                 : 40\nDuration                                 : 52mn 37s\nBit rate mode                            : Variable\nBit rate                                 : 128 Kbps\nMaximum bit rate                         : 227 Kbps\nChannel count                            : 2 channels\nChannel positions                        : Front: L R\nSampling rate                            : 44.1 KHz\nCompression mode                         : Lossy\nStream size                              : 48.1 MiB (5%)\nLanguage                                 : English","torrent":{"xt":"urn:btih:355e11e06287edc28ed78379bf8e62960969b6e6","amp;dn":"JLA+Adventures+-+Trapped+in+Time+%282014%29+HDRip+x264+AAC-BDM","amp;tr":["udp%3A%2F%2Ftracker.openbittorrent.com%3A80","udp%3A%2F%2Fopen.demonii.com%3A1337","udp%3A%2F%2Ftracker.coppersurfer.tk%3A6969","udp%3A%2F%2Fexodus.desync.com%3A6969"],"infoHash":"355e11e06287edc28ed78379bf8e62960969b6e6","infoHashBuffer":{"type":"Buffer","data":[53,94,17,224,98,135,237,194,142,215,131,121,191,142,98,150,9,105,182,230]},"announce":[],"urlList":[]}}